opsz144_wght100_wdth125.ufo
<glyph name="B" format="2">
	<unicode hex="0042"/>
	<advance width="1279"/>
	<outline>
		<contour>
			<point x="80.9997558594" y="0" type="line"/>
			<point x="80.9997558594" y="100.0007324219" type="line"/>
			<point x="289.9985351562" y="134.0007324219" type="line"/>
			<point x="291.9985351562" y="760" type="line"/>
			<point x="289.9985351562" y="1350.5191650391" type="line"/>
			<point x="80.9997558594" y="1384.5191650391" type="line"/>
			<point x="80.9997558594" y="1500" type="line"/>
			<point x="510.3190307617" y="1500" type="line" smooth="yes"/>
			<point x="831.4257202148" y="1500"/>
			<point x="1117.4881591797" y="1337"/>
			<point x="1117.4881591797" y="1192" type="qcurve" smooth="yes"/>
			<point x="1117.4881591797" y="1049"/>
			<point x="945.3293457031" y="869"/>
			<point x="862" y="831" type="qcurve"/>
			<point x="862" y="821" type="line"/>
			<point x="954.3101806641" y="848"/>
			<point x="1222.3630371094" y="655"/>
			<point x="1223.3630371094" y="477" type="qcurve" smooth="yes"/>
			<point x="1224.3630371094" y="260"/>
			<point x="868.2256469727" y="0"/>
			<point x="552.5664672852" y="0" type="qcurve" smooth="yes"/>
		</contour>
		<contour>
			<point x="468.6763916016" y="118.2586669922" type="line"/>
			<point x="481.6763916016" y="115.0974121094" type="line"/>
			<point x="596.3206176758" y="113.0974121094" type="line" smooth="yes"/>
			<point x="808.1282348633" y="112.0974121094"/>
			<point x="1030.6385498047" y="245.1931152344"/>
			<point x="1030.6385498047" y="449" type="qcurve" smooth="yes"/>
			<point x="1030.6385498047" y="624.7707519531"/>
			<point x="822.8173828125" y="769.8704833984"/>
			<point x="656.3901367188" y="769.8704833984" type="qcurve" smooth="yes"/>
			<point x="465.6530761719" y="769.8704833984" type="line"/>
			<point x="462.6530761719" y="764.0963134766" type="line"/>
		</contour>
		<contour>
			<point x="462.9786376953" y="883.7420654297" type="line"/>
			<point x="463.9786376953" y="872.1614379883" type="line"/>
			<point x="651.1307373047" y="872.1614379883" type="line" smooth="yes"/>
			<point x="804.0103759766" y="872.1614379883"/>
			<point x="919.4847412109" y="1064.8195800781"/>
			<point x="919.4847412109" y="1188" type="qcurve" smooth="yes"/>
			<point x="919.4847412109" y="1318.4094238281"/>
			<point x="750.7590332031" y="1379.8057250977"/>
			<point x="540.5700683594" y="1379.8057250977" type="qcurve" smooth="yes"/>
			<point x="498.3508300781" y="1379.8057250977" type="line"/>
			<point x="469.3508300781" y="1359.6444702148" type="line"/>
		</contour>
	</outline>
	<anchor name="bottom" x="614" y="0"/>
	<anchor name="top" x="614" y="1500"/>
</glyph>
<glyph name="D" format="2">
	<unicode hex="0044"/>
	<advance width="1637"/>
	<outline>
		<contour>
			<point x="82" y="0" type="line"/>
			<point x="82" y="100" type="line"/>
			<point x="291" y="135" type="line"/>
			<point x="293" y="754" type="line"/>
			<point x="291" y="1352" type="line"/>
			<point x="82" y="1386" type="line"/>
			<point x="82" y="1500" type="line"/>
			<point x="709" y="1500" type="line" smooth="yes"/>
			<point x="1185" y="1500"/>
			<point x="1557" y="1139"/>
			<point x="1557" y="777" type="qcurve" smooth="yes"/>
			<point x="1557" y="430"/>
			<point x="1164" y="-10"/>
			<point x="731" y="-6" type="qcurve" smooth="yes"/>
		</contour>
		<contour>
			<point x="466" y="121" type="line"/>
			<point x="500" y="115"/>
			<point x="732" y="98"/>
			<point x="807" y="98" type="qcurve" smooth="yes"/>
			<point x="1093" y="98"/>
			<point x="1356" y="452"/>
			<point x="1356" y="761" type="qcurve" smooth="yes"/>
			<point x="1356" y="1078"/>
			<point x="1076" y="1387"/>
			<point x="766" y="1387" type="qcurve" smooth="yes"/>
			<point x="716" y="1387"/>
			<point x="502" y="1377"/>
			<point x="466" y="1372" type="qcurve"/>
			<point x="463" y="754" type="line"/>
		</contour>
	</outline>
	<anchor name="bottom" x="686" y="0"/>
	<anchor name="center" x="438" y="754"/>
	<anchor name="top" x="686" y="1500"/>
	<anchor name="liga" x="1590" y="0"/>
</glyph>
<glyph name="E" format="2">
	<unicode hex="0045"/>
	<advance width="1306"/>
	<outline>
		<contour>
			<point x="80.9997558594" y="0" type="line"/>
			<point x="80.9997558594" y="100.0007324219" type="line"/>
			<point x="289.9985351562" y="131.0007324219" type="line"/>
			<point x="293.3474121094" y="756" type="line"/>
			<point x="289.9985351562" y="1353.5191650391" type="line"/>
			<point x="80.9997558594" y="1386.5191650391" type="line"/>
			<point x="80.9997558594" y="1500" type="line"/>
			<point x="1138.3703613281" y="1500" type="line"/>
			<point x="1158.3703613281" y="1151.3312988281" type="line"/>
			<point x="1044.3702392578" y="1151.3312988281" type="line"/>
			<point x="944.3702392578" y="1392.483215332" type="line"/>
			<point x="500" y="1382" type="line"/>
			<point x="470" y="1362" type="line"/>
			<point x="468" y="783" type="line"/>
			<point x="470" y="128" type="line"/>
			<point x="500" y="108" type="line"/>
			<point x="1004.2130737305" y="105.4522094727" type="line"/>
			<point x="1137.2130737305" y="398.6687011719" type="line"/>
			<point x="1249.2131958008" y="398.6687011719" type="line"/>
			<point x="1187.2131958008" y="0" type="line"/>
		</contour>
		<contour>
			<point x="382.6746826172" y="736.9352416992" type="line"/>
			<point x="381.6746826172" y="832.4841308594" type="line"/>
			<point x="828.3592529297" y="842.5487060547" type="line"/>
			<point x="902.3592529297" y="997.6687011719" type="line"/>
			<point x="1005.359375" y="997.6687011719" type="line"/>
			<point x="1005.359375" y="571.3312988281" type="line"/>
			<point x="902.3592529297" y="571.3312988281" type="line"/>
			<point x="828.3592529297" y="732.8706665039" type="line"/>
		</contour>
	</outline>
	<anchor name="bottom" x="681" y="0"/>
	<anchor name="ogonek" x="1000" y="0"/>
	<anchor name="top" x="654" y="1500"/>
	<anchor name="tonos" x="0" y="1500"/>
</glyph>
<glyph name="H" format="2">
	<unicode hex="0048"/>
	<advance width="1738"/>
	<outline>
		<contour>
			<point x="80.9997558594" y="0" type="line"/>
			<point x="80.9997558594" y="100.0007324219" type="line"/>
			<point x="289.9985351562" y="135.0007324219" type="line"/>
			<point x="293.3474121094" y="785" type="line"/>
			<point x="289.9985351562" y="1351.5191650391" type="line"/>
			<point x="80.9997558594" y="1386.5191650391" type="line"/>
			<point x="80.9997558594" y="1500" type="line"/>
			<point x="685.6751708984" y="1500" type="line"/>
			<point x="685.6751708984" y="1385.5191650391" type="line"/>
			<point x="469.6763916016" y="1351.5191650391" type="line"/>
			<point x="466.3275146484" y="785" type="line"/>
			<point x="469.6763916016" y="135.0007324219" type="line"/>
			<point x="685.6751708984" y="100.0007324219" type="line"/>
			<point x="685.6751708984" y="0" type="line"/>
		</contour>
		<contour>
			<point x="384.0002441406" y="720.1931762695" type="line"/>
			<point x="384.0002441406" y="853.0003662109" type="line"/>
			<point x="843.8663330078" y="843.5487060547" type="line"/>
			<point x="1353.6697998047" y="853.0003662109" type="line"/>
			<point x="1353.6697998047" y="720.1931762695" type="line"/>
			<point x="843.8663330078" y="722.1931762695" type="line"/>
		</contour>
		<contour>
			<point x="1052.6693115234" y="0" type="line"/>
			<point x="1052.6693115234" y="100.0007324219" type="line"/>
			<point x="1268.6680908203" y="135.0007324219" type="line"/>
			<point x="1272.0169677734" y="789" type="line"/>
			<point x="1268.6680908203" y="1351.5191650391" type="line"/>
			<point x="1052.3467308782" y="1385.1191650391" type="line"/>
			<point x="1052.3467308782" y="1500" type="line"/>
			<point x="1657.0221459173" y="1500" type="line"/>
			<point x="1657.0221459173" y="1385.1191650391" type="line"/>
			<point x="1448.3459472656" y="1351.5191650391" type="line"/>
			<point x="1444.9970703125" y="785" type="line"/>
			<point x="1448.3459472656" y="135.0007324219" type="line"/>
			<point x="1657.0221459173" y="100.0007324219" type="line"/>
			<point x="1657.0221459173" y="0" type="line"/>
		</contour>
	</outline>
	<anchor name="bottom" x="870" y="0"/>
	<anchor name="center" x="870" y="1079"/>
	<anchor name="top" x="870" y="1500"/>
	<anchor name="tonos" x="0" y="1500"/>
	<anchor name="cy_descender" x="1658" y="100"/>
</glyph>
<glyph name="L" format="2">
	<unicode hex="004C"/>
	<advance width="1310"/>
	<outline>
		<contour>
			<point x="80.9997558594" y="0" type="line"/>
			<point x="80.9997558594" y="100.0007324219" type="line"/>
			<point x="289.9985351562" y="137.0007324219" type="line"/>
			<point x="291.9985351562" y="754" type="line"/>
			<point x="289.9985351562" y="1350.5191650391" type="line"/>
			<point x="80.9997558594" y="1383.5191650391" type="line"/>
			<point x="80.9997558594" y="1500" type="line"/>
			<point x="712.6751708984" y="1500" type="line"/>
			<point x="712.6751708984" y="1384.5191650391" type="line"/>
			<point x="469.6763916016" y="1350.5191650391" type="line"/>
			<point x="466.3275146484" y="754" type="line"/>
			<point x="467.6763916016" y="132.4522094727" type="line"/>
			<point x="511.6763916016" y="110.4522094727" type="line"/>
			<point x="1091.6942138672" y="110.4522094727" type="line"/>
			<point x="1208.6942138672" y="487.9552612305" type="line"/>
			<point x="1327.7307128906" y="487.9552612305" type="line"/>
			<point x="1272.0532226562" y="0" type="line"/>
		</contour>
	</outline>
	<anchor name="bottom" x="705" y="0"/>
	<anchor name="centerright" x="928" y="750"/>
	<anchor name="top" x="632" y="1500"/>
	<anchor name="topright" x="784" y="1001"/>
	<anchor name="center" x="378" y="750"/>
	<anchor name="liga" x="1264" y="0"/>
</glyph>
<glyph name="M" format="2">
	<unicode hex="004D"/>
	<advance width="2081"/>
	<outline>
		<contour>
			<point x="83.9997558594" y="0" type="line"/>
			<point x="83.9997558594" y="100.0007324219" type="line"/>
			<point x="307.9985351562" y="153.0007324219" type="line"/>
			<point x="311.9985351562" y="746" type="line"/>
			<point x="309.9985351562" y="1341.5191650391" type="line"/>
			<point x="76.9997558594" y="1384.5191650391" type="line"/>
			<point x="76.9997558594" y="1500" type="line"/>
			<point x="623.7365112305" y="1500" type="line"/>
			<point x="874.5358886719" y="765.6123046875" type="line"/>
			<point x="972.4830322266" y="404.8223876953" type="line"/>
			<point x="1023.4008178711" y="265.2736816406" type="line"/>
			<point x="1023.4008178711" y="265.2736816406" type="line"/>
			<point x="1079.5416870117" y="403.6841430664" type="line"/>
			<point x="1239.8444824219" y="820.6576538086" type="line"/>
			<point x="1472.903503418" y="1498" type="line"/>
			<point x="2000.0874633789" y="1500" type="line"/>
			<point x="2000.0874633789" y="1384.5191650391" type="line"/>
			<point x="1791.088684082" y="1341.5191650391" type="line"/>
			<point x="1789.088684082" y="751" type="line"/>
			<point x="1791.088684082" y="135.0007324219" type="line"/>
			<point x="2000.0874633789" y="100.0007324219" type="line"/>
			<point x="2000.0874633789" y="0" type="line"/>
			<point x="1397.1098022461" y="2" type="line"/>
			<point x="1397.1098022461" y="102.0007324219" type="line"/>
			<point x="1612.108581543" y="135.0007324219" type="line"/>
			<point x="1614.108581543" y="750" type="line"/>
			<point x="1609.4956665039" y="1321" type="line"/>
			<point x="1610.108581543" y="1441" type="line"/>
			<point x="1610.108581543" y="1441" type="line"/>
			<point x="1568.0385131836" y="1311.3021850586" type="line"/>
			<point x="1354.1840209961" y="781.2847290039" type="line"/>
			<point x="1064.592956543" y="-15.9075927734" type="line"/>
			<point x="925.1729736328" y="-15.9075927734" type="line"/>
			<point x="721.0615844727" y="703.0886230469" type="line"/>
			<point x="485.8698120117" y="1315.1772460938" type="line"/>
			<point x="436.5153198242" y="1446" type="line"/>
			<point x="436.5153198242" y="1446" type="line"/>
			<point x="435.5153198242" y="1321" type="line"/>
			<point x="432.5153198242" y="743" type="line"/>
			<point x="430.5153198242" y="153.0007324219" type="line"/>
			<point x="642.5140991211" y="102.0007324219" type="line"/>
			<point x="642.5140991211" y="2" type="line"/>
		</contour>
	</outline>
	<anchor name="bottom" x="1025" y="0"/>
	<anchor name="top" x="1058" y="1500"/>
</glyph>
<glyph name="N" format="2">
	<unicode hex="004E"/>
	<advance width="1614"/>
	<outline>
		<contour>
			<point x="84.9997558594" y="0" type="line"/>
			<point x="84.9997558594" y="100.0007324219" type="line"/>
			<point x="307.9985351562" y="153.0007324219" type="line"/>
			<point x="311.9985351562" y="754" type="line"/>
			<point x="311.9985351562" y="1342.5191650391" type="line"/>
			<point x="77.9997558594" y="1384.5191650391" type="line"/>
			<point x="77.9997558594" y="1500" type="line"/>
			<point x="522.6901855469" y="1500" type="line"/>
			<point x="925.0353393555" y="834.4443359375" type="line"/>
			<point x="1148" y="412" type="line"/>
			<point x="1206" y="310" type="line"/>
			<point x="1215" y="313" type="line"/>
			<point x="1211" y="434" type="line"/>
			<point x="1229.9139404297" y="747" type="line"/>
			<point x="1220.9139404297" y="1332.5191650391" type="line"/>
			<point x="966.9151611328" y="1384.5191650391" type="line"/>
			<point x="966.9151611328" y="1500" type="line"/>
			<point x="1550.3326416016" y="1500" type="line"/>
			<point x="1550.3326416016" y="1384.5191650391" type="line"/>
			<point x="1335.3338623047" y="1332.5191650391" type="line"/>
			<point x="1337.3338623047" y="747" type="line"/>
			<point x="1345.3338623047" y="-4" type="line"/>
			<point x="1225.3197631836" y="-4" type="line"/>
			<point x="770.8485717773" y="753.8404541016" type="line"/>
			<point x="472" y="1219" type="line"/>
			<point x="414" y="1321" type="line"/>
			<point x="405" y="1318" type="line"/>
			<point x="410" y="1198" type="line"/>
			<point x="422.0313720703" y="754" type="line"/>
			<point x="423.0313720703" y="153.0007324219" type="line"/>
			<point x="639.0301513672" y="100.0007324219" type="line"/>
			<point x="639.0301513672" y="0" type="line"/>
		</contour>
	</outline>
	<anchor name="bottom" x="800" y="0"/>
	<anchor name="top" x="800" y="1500"/>
	<anchor name="engtail" x="1324" y="0"/>
	<anchor name="liga" x="1600" y="0"/>
</glyph>
<glyph name="O" format="2">
	<unicode hex="004F"/>
	<advance width="1680"/>
	<outline>
		<contour>
			<point x="80.0014648438" y="733.8834228516" type="qcurve" smooth="yes"/>
			<point x="80.0014648438" y="1073"/>
			<point x="520.3394775391" y="1519"/>
			<point x="844.2795232957" y="1519" type="qcurve" smooth="yes"/>
			<point x="1161.647644043" y="1519"/>
			<point x="1600.1862792969" y="1092"/>
			<point x="1600.1862792969" y="764" type="qcurve" smooth="yes"/>
			<point x="1600.1862792969" y="419"/>
			<point x="1153.0388144216" y="-26"/>
			<point x="840.4685196415" y="-26" type="qcurve" smooth="yes"/>
			<point x="544.0695210118" y="-26"/>
			<point x="80.0014648438" y="388.5112304688"/>
		</contour>
		<contour>
			<point x="278.0981445312" y="771" type="qcurve" smooth="yes"/>
			<point x="278.0981445312" y="493.1938476562"/>
			<point x="569.1106567383" y="89.8071899414"/>
			<point x="846.1196426884" y="89.5571899414" type="qcurve" smooth="yes"/>
			<point x="1143.1067504883" y="89.8071899414"/>
			<point x="1401.0895996094" y="452.181640625"/>
			<point x="1401.0895996094" y="745" type="qcurve" smooth="yes"/>
			<point x="1401.0895996094" y="1014.1796875"/>
			<point x="1123.1039428711" y="1392.7411499023"/>
			<point x="839.2362198368" y="1392.7411499023" type="qcurve" smooth="yes"/>
			<point x="568.5365600586" y="1392.7411499023"/>
			<point x="278.0981445312" y="1052.9990234375"/>
		</contour>
	</outline>
	<anchor name="bottom" x="832" y="0"/>
	<anchor name="center" x="832" y="750"/>
	<anchor name="ogonek" x="1064" y="0"/>
	<anchor name="top" x="832" y="1500"/>
	<anchor name="topright" x="1028" y="1500"/>
	<anchor name="tonos" x="140" y="1500"/>
	<anchor name="_yu_dash" x="169" y="755"/>
</glyph>
<glyph name="Q" format="2">
	<unicode hex="0051"/>
	<advance width="1682"/>
	<outline>
		<contour>
			<point x="80.0014648438" y="744" type="qcurve" smooth="yes"/>
			<point x="80.0014648438" y="1075"/>
			<point x="541.7355957031" y="1519"/>
			<point x="833.5407714844" y="1519" type="qcurve" smooth="yes"/>
			<point x="1155.0479125977" y="1519"/>
			<point x="1601.53515625" y="1094"/>
			<point x="1601.53515625" y="763" type="qcurve" smooth="yes"/>
			<point x="1601.53515625" y="418"/>
			<point x="1124.1604614258" y="-20"/>
			<point x="846.7396240234" y="-20" type="qcurve" smooth="yes"/>
			<point x="552.2970581055" y="-20"/>
			<point x="80.0014648438" y="401"/>
		</contour>
		<contour>
			<point x="276.7725830078" y="783" type="qcurve" smooth="yes"/>
			<point x="275.7725830078" y="484.3142089844"/>
			<point x="560.9090576172" y="88.3555297852"/>
			<point x="840.6929931641" y="87.5490722656" type="qcurve" smooth="yes"/>
			<point x="1128.0482177734" y="86.7426147461"/>
			<point x="1405.7640380859" y="445.6394042969"/>
			<point x="1405.7640380859" y="745" type="qcurve" smooth="yes"/>
			<point x="1405.7640380859" y="1020.6857910156"/>
			<point x="1125.0943603516" y="1393.7411499023"/>
			<point x="831.2152099609" y="1393.7411499023" type="qcurve" smooth="yes"/>
			<point x="559.4075927734" y="1393.7411499023"/>
			<point x="277.7725830078" y="1060.7822265625"/>
		</contour>
		<contour>
			<point x="573" y="-39" type="qcurve"/>
			<point x="1290" y="-274" type="line"/>
			<point x="1350" y="-274"/>
			<point x="1442" y="-186"/>
			<point x="1475" y="-132" type="qcurve"/>
			<point x="1565" y="-184" type="line"/>
			<point x="1515" y="-288"/>
			<point x="1371" y="-429"/>
			<point x="1239" y="-429" type="qcurve"/>
			<point x="540" y="-194" type="line"/>
			<point x="479" y="-194"/>
			<point x="363" y="-236"/>
			<point x="306" y="-288" type="qcurve"/>
			<point x="238" y="-224" type="line"/>
			<point x="299" y="-132"/>
			<point x="476" y="-39"/>
		</contour>
		<contour>
			<point x="520.5662231445" y="-132.8497924805" type="line"/>
			<point x="817.3612670898" y="223.3226928711" type="line"/>
			<point x="905.619934082" y="180.6773071289" type="line"/>
			<point x="625.2119750977" y="-164.6564331055" type="line"/>
		</contour>
	</outline>
	<anchor name="bottom" x="832" y="0"/>
	<anchor name="top" x="823" y="1502"/>
</glyph>
<glyph name="R" format="2">
	<unicode hex="0052"/>
	<advance width="1465"/>
	<outline>
		<contour>
			<point x="82.9997558594" y="0" type="line"/>
			<point x="82.9997558594" y="100.0007324219" type="line"/>
			<point x="289.9985351562" y="135.0007324219" type="line"/>
			<point x="291.9985351562" y="801" type="line"/>
			<point x="289.9985351562" y="1352.5191650391" type="line"/>
			<point x="80.9997558594" y="1386.0191650391" type="line"/>
			<point x="80.9997558594" y="1500" type="line"/>
			<point x="698.7510986328" y="1500" type="line" smooth="yes"/>
			<point x="963.5164794922" y="1500"/>
			<point x="1215.6665649414" y="1302"/>
			<point x="1215.6665649414" y="1123" type="qcurve" smooth="yes"/>
			<point x="1215.6665649414" y="948"/>
			<point x="992.5570068359" y="688.8708496094"/>
			<point x="789.4332275391" y="688.8708496094" type="qcurve" smooth="yes"/>
			<point x="713.3094482422" y="688.8708496094"/>
			<point x="439.3268432617" y="693.0966796875"/>
			<point x="381.6513671875" y="701.3225097656" type="qcurve"/>
			<point x="381.6513671875" y="785.6455688477" type="line"/>
			<point x="662.4893188477" y="785.6455688477" type="line" smooth="yes"/>
			<point x="908.0601196289" y="785.6455688477"/>
			<point x="1014.848815918" y="975.4582519531"/>
			<point x="1014.848815918" y="1120" type="qcurve" smooth="yes"/>
			<point x="1014.848815918" y="1276.2165527344"/>
			<point x="876.26171875" y="1387.483215332"/>
			<point x="660.7624511719" y="1387.483215332" type="qcurve" smooth="yes"/>
			<point x="487.9786376953" y="1387.483215332" type="line"/>
			<point x="464.9786376953" y="1361.483215332" type="line"/>
			<point x="461.9786376953" y="751" type="line"/>
			<point x="463.9786376953" y="135.0007324219" type="line"/>
			<point x="695.9774169922" y="100.0007324219" type="line"/>
			<point x="695.9774169922" y="0" type="line"/>
		</contour>
		<contour>
			<point x="776.7915039062" y="739.7420654297" type="line"/>
			<point x="963.5393066406" y="757.3162231445" type="line"/>
			<point x="1293.125793457" y="224" type="line" smooth="yes"/>
			<point x="1373.3911132812" y="97.4002075195"/>
			<point x="1423.9757080078" y="113.8207397461"/>
			<point x="1496.1919555664" y="101.0007324219" type="qcurve"/>
			<point x="1496.1919555664" y="0" type="line"/>
			<point x="1251.4959716797" y="0" type="line"/>
			<point x="1232.4959716797" y="12" type="line"/>
		</contour>
	</outline>
	<anchor name="bottom" x="803" y="0"/>
	<anchor name="top" x="630" y="1500"/>
</glyph>
<glyph name="S" format="2">
	<unicode hex="0053"/>
	<advance width="1182"/>
	<outline>
		<contour>
			<point x="68.4991455078" y="4.1656494141" type="line"/>
			<point x="68.4991455078" y="437.6674804688" type="line"/>
			<point x="188.5174560547" y="437.6674804688" type="line"/>
			<point x="227.5174560547" y="300" type="line" smooth="yes"/>
			<point x="252.5818481445" y="238.9361572266"/>
			<point x="424.4722290039" y="88.3555297852"/>
			<point x="614.8334960938" y="88.3555297852" type="qcurve" smooth="yes"/>
			<point x="817.212890625" y="88.3555297852"/>
			<point x="955.0424804688" y="238.6539306641"/>
			<point x="955.7621459961" y="356.6656494141" type="qcurve" smooth="yes"/>
			<point x="956.4818115234" y="542.7646484375"/>
			<point x="760.1159057617" y="644.2593994141"/>
			<point x="549.3065795898" y="713.3679199219" type="qcurve" smooth="yes"/>
			<point x="321.190246582" y="773.4967041016"/>
			<point x="120.4368896484" y="980.2700195312"/>
			<point x="120.4368896484" y="1146.2242431641" type="qcurve" smooth="yes"/>
			<point x="120.4368896484" y="1288.6197509766"/>
			<point x="336.1669311523" y="1517"/>
			<point x="510.8656005859" y="1517" type="qcurve" smooth="yes"/>
			<point x="710.5568237305" y="1517"/>
			<point x="904.9924926758" y="1429.0294189453"/>
			<point x="939.4353027344" y="1360.806640625" type="qcurve"/>
			<point x="951.0782470703" y="1490.8343505859" type="line"/>
			<point x="1060.8175048828" y="1490.8343505859" type="line"/>
			<point x="1060.8175048828" y="1070.3325195312" type="line"/>
			<point x="944.4719238281" y="1070.3325195312" type="line"/>
			<point x="882.4719238281" y="1265" type="line" smooth="yes"/>
			<point x="853.8530883789" y="1336.1998291016"/>
			<point x="665.8654785156" y="1395.3863525391"/>
			<point x="535.8529052734" y="1395.3863525391" type="qcurve" smooth="yes"/>
			<point x="349.3067626953" y="1395.3863525391"/>
			<point x="298.7542114258" y="1277.4044799805"/>
			<point x="299.4738769531" y="1169.2360229492" type="qcurve" smooth="yes"/>
			<point x="300.1935424805" y="1069.9124145508"/>
			<point x="402.4973144531" y="943.7545776367"/>
			<point x="702.6364746094" y="864.3535766602" type="qcurve" smooth="yes"/>
			<point x="879.5502929688" y="790.5841674805"/>
			<point x="1148.3415527344" y="616.8591308594"/>
			<point x="1148.3415527344" y="414.4735107422" type="qcurve" smooth="yes"/>
			<point x="1148.3415527344" y="235.0654296875"/>
			<point x="878.2946166992" y="-25"/>
			<point x="653.7255859375" y="-25" type="qcurve" smooth="yes"/>
			<point x="472.73828125" y="-25"/>
			<point x="234.6324462891" y="104"/>
			<point x="215.4265136719" y="185" type="qcurve"/>
			<point x="171.4810791016" y="4.1656494141" type="line"/>
		</contour>
	</outline>
	<anchor name="bottom" x="599" y="0"/>
	<anchor name="top" x="514" y="1500"/>
</glyph>
<glyph name="T" format="2">
	<unicode hex="0054"/>
	<advance width="1303"/>
	<outline>
		<contour>
			<point x="20" y="1062" type="line"/>
			<point x="20" y="1500" type="line"/>
			<point x="1285" y="1500" type="line"/>
			<point x="1285" y="1062" type="line"/>
			<point x="1175" y="1062" type="line"/>
			<point x="1140" y="1392" type="line"/>
			<point x="758" y="1392" type="line"/>
			<point x="739" y="1392" type="line"/>
			<point x="739" y="754" type="line"/>
			<point x="743" y="136" type="line"/>
			<point x="972" y="100" type="line"/>
			<point x="972" y="0" type="line"/>
			<point x="327" y="0" type="line"/>
			<point x="327" y="100" type="line"/>
			<point x="562" y="136" type="line"/>
			<point x="566" y="754" type="line"/>
			<point x="566" y="1392" type="line"/>
			<point x="557" y="1392" type="line"/>
			<point x="165" y="1392" type="line"/>
			<point x="130" y="1062" type="line"/>
		</contour>
	</outline>
	<anchor name="bottom" x="644" y="0"/>
	<anchor name="center" x="644" y="750"/>
	<anchor name="top" x="644" y="1500"/>
	<anchor name="cy_descender" x="951" y="100"/>
</glyph>
<glyph name="U" format="2">
	<unicode hex="0055"/>
	<advance width="1712"/>
	<outline>
		<contour>
			<point x="72.4998779297" y="1385.5191650391" type="line"/>
			<point x="72.4998779297" y="1500" type="line"/>
			<point x="680.1286621094" y="1500" type="line"/>
			<point x="680.1286621094" y="1385.5191650391" type="line"/>
			<point x="466.1298828125" y="1351.5191650391" type="line"/>
			<point x="466.1298828125" y="826.8200683594" type="line"/>
			<point x="470.8509521484" y="526.2962036133" type="line" smooth="yes"/>
			<point x="472.109375" y="237.2962036133"/>
			<point x="706.0988769531" y="89.9684448242"/>
			<point x="920.5004882812" y="89.9684448242" type="qcurve" smooth="yes"/>
			<point x="1110.8068847656" y="89.9684448242"/>
			<point x="1380.3983764648" y="205.2639160156"/>
			<point x="1374.6517333984" y="526.2639160156" type="qcurve" smooth="yes"/>
			<point x="1372.8253173828" y="820.8200683594" type="line"/>
			<point x="1367.6517333984" y="1333.5191650391" type="line"/>
			<point x="1117.6529541016" y="1386.5191650391" type="line"/>
			<point x="1117.6529541016" y="1500" type="line"/>
			<point x="1733.0706176758" y="1500" type="line"/>
			<point x="1733.0706176758" y="1386.5191650391" type="line"/>
			<point x="1506.0718383789" y="1333.5191650391" type="line"/>
			<point x="1503.7844848633" y="820.8200683594" type="line"/>
			<point x="1506.8782958984" y="427.7865600586" type="line" smooth="yes"/>
			<point x="1507.0934448242" y="210.5941162109"/>
			<point x="1147.4446411133" y="-25"/>
			<point x="931.6092529297" y="-25" type="qcurve" smooth="yes"/>
			<point x="650.2337036133" y="-25"/>
			<point x="286.2635498047" y="210.7154541016"/>
			<point x="289.4986572266" y="437.2258911133" type="qcurve" smooth="yes"/>
			<point x="293.4986572266" y="825.8200683594" type="line"/>
			<point x="290.4986572266" y="1351.5191650391" type="line"/>
		</contour>
	</outline>
	<anchor name="bottom" x="832" y="0"/>
	<anchor name="ogonek" x="1042" y="0"/>
	<anchor name="top" x="832" y="1500"/>
	<anchor name="topright" x="1590" y="1500"/>
</glyph>
<glyph name="V" format="2">
	<unicode hex="0056"/>
	<advance width="1471"/>
	<outline>
		<contour>
			<point x="-81.9982910156" y="1384.5191650391" type="line"/>
			<point x="-81.9982910156" y="1500" type="line"/>
			<point x="545.4203491211" y="1500" type="line"/>
			<point x="545.4203491211" y="1384.5191650391" type="line"/>
			<point x="322.4221801758" y="1357.5191650391" type="line"/>
			<point x="575.0682373047" y="801.2775878906" type="line"/>
			<point x="709" y="366" type="line"/>
			<point x="746" y="252" type="line"/>
			<point x="756" y="252" type="line"/>
			<point x="793" y="366" type="line"/>
			<point x="967.1659545898" y="792.7408447266" type="line"/>
			<point x="1181.5034790039" y="1344.1236572266" type="line"/>
			<point x="943.5053100586" y="1379.1236572266" type="line"/>
			<point x="943.5053100586" y="1494.6044921875" type="line"/>
			<point x="1542.5645141602" y="1500" type="line"/>
			<point x="1543.5645141602" y="1384.5191650391" type="line"/>
			<point x="1313.5662231445" y="1347.5191650391" type="line"/>
			<point x="1082.2582397461" y="749.048828125" type="line"/>
			<point x="799.333984375" y="-5" type="line"/>
			<point x="704.6301269531" y="-5" type="line"/>
			<point x="401.4510498047" y="756.2001342773" type="line"/>
			<point x="137" y="1355.5191650391" type="line"/>
		</contour>
	</outline>
	<anchor name="bottom" x="723" y="0"/>
	<anchor name="top" x="733" y="1500"/>
</glyph>
<glyph name="W" format="2">
	<unicode hex="0057"/>
	<advance width="2086"/>
	<outline>
		<contour>
			<point x="654.0041503906" y="-3" type="line"/>
			<point x="359.4313964844" y="816.3322143555" type="line"/>
			<point x="170" y="1354.5191650391" type="line"/>
			<point x="-79.9987792969" y="1386.5191650391" type="line"/>
			<point x="-79.9987792969" y="1500" type="line"/>
			<point x="608.4676513672" y="1500" type="line"/>
			<point x="608.4676513672" y="1386.5191650391" type="line"/>
			<point x="366.4688720703" y="1357.5191650391" type="line"/>
			<point x="524.8222045898" y="874.0228881836" type="line"/>
			<point x="700.6634521484" y="398.0653686523" type="line"/>
			<point x="746.2640991211" y="257.9956665039" type="line"/>
			<point x="746.2640991211" y="257.9956665039" type="line"/>
			<point x="783.8555297852" y="397.3093261719" type="line"/>
			<point x="872.0050048828" y="721.6148681641" type="line"/>
			<point x="992.8888549805" y="1125.9961547852" type="line"/>
			<point x="897.7958984375" y="1358.0792236328" type="line"/>
			<point x="667.7971191406" y="1385.0792236328" type="line"/>
			<point x="667.7971191406" y="1500" type="line"/>
			<point x="1339.5419921875" y="1500" type="line"/>
			<point x="1339.5419921875" y="1385.0792236328" type="line"/>
			<point x="1096.5432128906" y="1362.0792236328" type="line"/>
			<point x="1270.8203125" y="803.3010864258" type="line"/>
			<point x="1385.0716552734" y="395.4887695312" type="line"/>
			<point x="1416.8454589844" y="260.1569213867" type="line"/>
			<point x="1416.8454589844" y="260.1569213867" type="line"/>
			<point x="1448.2896728516" y="392.6026000977" type="line"/>
			<point x="1610.5270385742" y="852.9037475586" type="line"/>
			<point x="1735.7163696289" y="1339.5191650391" type="line"/>
			<point x="1467.717590332" y="1386.5191650391" type="line"/>
			<point x="1467.717590332" y="1500" type="line"/>
			<point x="2177.688293457" y="1500" type="line"/>
			<point x="2177.688293457" y="1386.5191650391" type="line"/>
			<point x="1902.6895141602" y="1337.5191650391" type="line"/>
			<point x="1729.1254272461" y="816.0474853516" type="line"/>
			<point x="1447.15625" y="-3" type="line"/>
			<point x="1325.5440673828" y="-3" type="line"/>
			<point x="1142.814453125" y="670.9748535156" type="line"/>
			<point x="1047.9991455078" y="964.5254516602" type="line"/>
			<point x="1047.9991455078" y="964.5254516602" type="line"/>
			<point x="921.0721435547" y="574.6774902344" type="line"/>
			<point x="779.3737182617" y="-3" type="line"/>
		</contour>
	</outline>
	<anchor name="bottom" x="1051" y="0"/>
	<anchor name="top" x="1051" y="1500"/>
</glyph>
<glyph name="X" format="2">
	<unicode hex="0058"/>
	<advance width="1346"/>
	<outline>
		<contour>
			<point x="-46.7761230469" y="0" type="line"/>
			<point x="-46.7761230469" y="100.0007324219" type="line"/>
			<point x="217.2219238281" y="143.0007324219" type="line"/>
			<point x="575" y="786" type="line"/>
			<point x="259.9315185547" y="1350.5191650391" type="line"/>
			<point x="-15.0666503906" y="1386.5191650391" type="line"/>
			<point x="-15.0666503906" y="1500" type="line"/>
			<point x="698.4211425781" y="1500" type="line"/>
			<point x="698.4211425781" y="1386.5191650391" type="line"/>
			<point x="465.4237060547" y="1351.5191650391" type="line"/>
			<point x="690.8815917969" y="1046.8045654297" type="line"/>
			<point x="733.1921386719" y="967.6198730469" type="line"/>
			<point x="733.1921386719" y="967.6198730469" type="line"/>
			<point x="751" y="1043" type="line"/>
			<point x="989.423034668" y="1346.5191650391" type="line"/>
			<point x="743.4254760742" y="1386.5191650391" type="line"/>
			<point x="743.4254760742" y="1500" type="line"/>
			<point x="1407.3251342773" y="1500" type="line"/>
			<point x="1407.3251342773" y="1386.5191650391" type="line"/>
			<point x="1140.3270874023" y="1349.5191650391" type="line"/>
			<point x="809.1321411133" y="830.2186889648" type="line"/>
			<point x="1279.3612670898" y="135.0007324219" type="line"/>
			<point x="1521.3594360352" y="100.0007324219" type="line"/>
			<point x="1521.3594360352" y="0" type="line"/>
			<point x="826.5227661133" y="0" type="line"/>
			<point x="826.5227661133" y="100.0007324219" type="line"/>
			<point x="1060.5202026367" y="135.0007324219" type="line"/>
			<point x="757.9795532227" y="547.72265625" type="line"/>
			<point x="696.6337890625" y="658.9298706055" type="line"/>
			<point x="696.6337890625" y="658.9298706055" type="line"/>
			<point x="577" y="562" type="line"/>
			<point x="370.1259765625" y="140.0007324219" type="line"/>
			<point x="628.1235351562" y="100.0007324219" type="line"/>
			<point x="628.1235351562" y="0" type="line"/>
		</contour>
	</outline>
	<anchor name="bottom" x="661" y="0"/>
	<anchor name="top" x="673" y="1500"/>
	<anchor name="cy_descender" x="1386" y="100"/>
	<anchor name="center" x="663" y="811"/>
</glyph>
<glyph name="Y" format="2">
	<unicode hex="0059"/>
	<advance width="1329"/>
	<outline>
		<contour>
			<point x="379.7205810547" y="0" type="line"/>
			<point x="379.7205810547" y="102.0007324219" type="line"/>
			<point x="587.7193603516" y="135.0007324219" type="line"/>
			<point x="589.0682373047" y="648.7933349609" type="line"/>
			<point x="391.8721923828" y="996.686340332" type="line"/>
			<point x="145" y="1350.5191650391" type="line"/>
			<point x="-87.9987792969" y="1386.5191650391" type="line"/>
			<point x="-87.9987792969" y="1500" type="line"/>
			<point x="570.7738647461" y="1500" type="line"/>
			<point x="570.7738647461" y="1386.5191650391" type="line"/>
			<point x="330.7750854492" y="1356.5191650391" type="line"/>
			<point x="544.3663330078" y="1059.9782104492" type="line"/>
			<point x="659" y="783" type="line"/>
			<point x="669" y="783" type="line"/>
			<point x="862.8917236328" y="1099.8994140625" type="line"/>
			<point x="1033.6620483398" y="1351.5191650391" type="line"/>
			<point x="793.663269043" y="1386.5191650391" type="line"/>
			<point x="793.663269043" y="1500" type="line"/>
			<point x="1398.5883178711" y="1500" type="line"/>
			<point x="1398.5883178711" y="1386.5191650391" type="line"/>
			<point x="1172.5895385742" y="1350.5191650391" type="line"/>
			<point x="963.9448852539" y="1040.8267211914" type="line"/>
			<point x="762.1803588867" y="696.075012207" type="line"/>
			<point x="762.7227783203" y="135.0007324219" type="line"/>
			<point x="968.7215576172" y="102.0007324219" type="line"/>
			<point x="968.7215576172" y="0" type="line"/>
		</contour>
	</outline>
	<anchor name="bottom" x="636" y="0"/>
	<anchor name="top" x="640" y="1500"/>
	<anchor name="tonos" x="-100" y="1500"/>
	<anchor name="center" x="636" y="582"/>
</glyph>
<glyph name="Z" format="2">
	<unicode hex="005A"/>
	<advance width="1187"/>
	<outline>
		<contour>
			<point x="15.0100097656" y="0" type="line"/>
			<point x="-15.6385131836" y="73.9020263672" type="line"/>
			<point x="934.3900756836" y="1380.483215332" type="line"/>
			<point x="927.3900756836" y="1396.483215332" type="line"/>
			<point x="324.7677001953" y="1396.483215332" type="line"/>
			<point x="234.4451904297" y="1117.6650390625" type="line"/>
			<point x="118.4086914062" y="1117.6650390625" type="line"/>
			<point x="118.4086914062" y="1500" type="line"/>
			<point x="1104.8621826172" y="1500" type="line"/>
			<point x="1104.8621826172" y="1412.9027709961" type="line"/>
			<point x="179.0195922852" y="126.4522094727" type="line"/>
			<point x="180.0195922852" y="110.4522094727" type="line"/>
			<point x="964.9647827148" y="110.4522094727" type="line"/>
			<point x="1065.5775146484" y="391.5042724609" type="line"/>
			<point x="1183.1421528477" y="391.5042724609" type="line"/>
			<point x="1136.1421528477" y="0" type="line"/>
		</contour>
	</outline>
	<anchor name="bottom" x="583" y="0"/>
	<anchor name="top" x="583" y="1500"/>
	<anchor name="_liga" x="0" y="0"/>
</glyph>
<glyph name="a" format="2">
	<unicode hex="0061"/>
	<advance width="1102"/>
	<outline>
		<contour>
			<point x="49.716796875" y="260.4438476562" type="qcurve" smooth="yes"/>
			<point x="49.716796875" y="422.6657714844"/>
			<point x="416" y="583"/>
			<point x="780" y="630" type="qcurve"/>
			<point x="856.2355957031" y="576.4153442383" type="line"/>
			<point x="627.0316772461" y="572.2368774414"/>
			<point x="244.3870849609" y="399.5994873047"/>
			<point x="244.3870849609" y="253.5997314453" type="qcurve" smooth="yes"/>
			<point x="244.3870849609" y="162.2508544922"/>
			<point x="385.3469848633" y="66.0355224609"/>
			<point x="513.1100463867" y="66.0355224609" type="qcurve" smooth="yes"/>
			<point x="545.9776000977" y="66.0355224609"/>
			<point x="780.2915039062" y="182.03515625"/>
			<point x="786.2342529297" y="215.8802490234" type="qcurve"/>
			<point x="787.5676269531" y="657.6484985352" type="line" smooth="yes"/>
			<point x="788.2343139648" y="833.265625"/>
			<point x="624.9044189453" y="922.5268554688"/>
			<point x="498.9072265625" y="922.5268554688" type="qcurve" smooth="yes"/>
			<point x="407.512878418" y="922.5268554688"/>
			<point x="343.6900634766" y="888.2661743164"/>
			<point x="332.9533691406" y="892.7478637695" type="qcurve"/>
			<point x="320.6585693359" y="887.0804443359"/>
			<point x="353.5481567383" y="828.9312133789"/>
			<point x="350.6223144531" y="795.2643432617" type="qcurve" smooth="yes"/>
			<point x="351.2346191406" y="742.9304199219"/>
			<point x="279.7789306641" y="683.5961914062"/>
			<point x="229.7781982422" y="683.5961914062" type="qcurve" smooth="yes"/>
			<point x="179.2260131836" y="683.5961914062"/>
			<point x="119.2858886719" y="745.2637329102"/>
			<point x="119.2858886719" y="810.2647094727" type="qcurve" smooth="yes"/>
			<point x="119.2858886719" y="886.264831543"/>
			<point x="351.1728515625" y="1028.2653808594"/>
			<point x="526.2646484375" y="1028.2653808594" type="qcurve" smooth="yes"/>
			<point x="706.1109619141" y="1028.2653808594"/>
			<point x="955.237487793" y="862.6484375"/>
			<point x="954.237487793" y="736.0203857422" type="qcurve" smooth="yes"/>
			<point x="952.237487793" y="107.9990234375" type="line"/>
			<point x="1098.239440918" y="81.9990234375" type="line"/>
			<point x="1098.239440918" y="0" type="line"/>
			<point x="866.2356567383" y="0" type="line"/>
			<point x="802.2346191406" y="42.6675415039" type="line"/>
			<point x="786.9009399414" y="145.3331298828" type="line"/>
			<point x="758.9323730469" y="91"/>
			<point x="499.3427734375" y="-18"/>
			<point x="358.3515014648" y="-18" type="qcurve" smooth="yes"/>
			<point x="325.3676757812" y="-18"/>
			<point x="49.716796875" y="132.7845458984"/>
		</contour>
	</outline>
	<anchor name="bottom" x="548" y="0"/>
	<anchor name="ogonek" x="878" y="0"/>
	<anchor name="top" x="514" y="1000"/>
</glyph>
<glyph name="b" format="2">
	<unicode hex="0062"/>
	<advance width="1168"/>
	<outline>
		<contour>
			<point x="131.8747558594" y="-2" type="line"/>
			<point x="139.2083129883" y="427" type="line"/>
			<point x="137.8747558594" y="1401.4683837891" type="line"/>
			<point x="-44.5266113281" y="1432.4683837891" type="line"/>
			<point x="-44.5266113281" y="1524.6672363281" type="line"/>
			<point x="299.2112426758" y="1540.0009765625" type="line"/>
			<point x="303.2112426758" y="1533.0009765625" type="line"/>
			<point x="314.2114868164" y="1508.0009765625" type="line"/>
			<point x="299.878112793" y="803.4655761719" type="line"/>
			<point x="352.4013671875" y="890.3321533203"/>
			<point x="572.7907104492" y="1030.2653808594"/>
			<point x="658.7930908203" y="1030.2653808594" type="qcurve" smooth="yes"/>
			<point x="881.2128295898" y="1030.2653808594"/>
			<point x="1104.5928955078" y="764.3990478516"/>
			<point x="1104.5928955078" y="529.2659912109" type="qcurve" smooth="yes"/>
			<point x="1104.5928955078" y="275.5329589844"/>
			<point x="837.5720214844" y="-30"/>
			<point x="641.8961181641" y="-28" type="qcurve" smooth="yes"/>
			<point x="544.8226318359" y="-27"/>
			<point x="362.7983398438" y="64.9854736328"/>
			<point x="311.4322509766" y="121.5191650391" type="qcurve"/>
			<point x="233.0594482422" y="-2" type="line"/>
		</contour>
		<contour>
			<point x="294.2112426758" y="395.7994384766" type="line"/>
			<point x="296.2112426758" y="229.3841552734" type="line"/>
			<point x="300.6959838867" y="185.5462646484"/>
			<point x="512.2268676758" y="78.1090087891"/>
			<point x="599.9891357422" y="78.1090087891" type="qcurve" smooth="yes"/>
			<point x="762.1716918945" y="78.1090087891"/>
			<point x="921.5892944336" y="332.1772460938"/>
			<point x="921.5892944336" y="515.1326904297" type="qcurve" smooth="yes"/>
			<point x="921.5892944336" y="686.5401611328"/>
			<point x="775.8850708008" y="925.3786621094"/>
			<point x="641.7025146484" y="925.3786621094" type="qcurve" smooth="yes"/>
			<point x="555.7145996094" y="925.3786621094"/>
			<point x="340.3385009766" y="782.6677246094"/>
			<point x="292.2112426758" y="683.1495361328" type="qcurve"/>
		</contour>
	</outline>
	<anchor name="bottom" x="571" y="0"/>
	<anchor name="top" x="571" y="1533"/>
</glyph>
<glyph name="c" format="2">
	<unicode hex="0063"/>
	<advance width="968"/>
	<outline>
		<contour>
			<point x="63.8914794922" y="486.7698974609" type="qcurve" smooth="yes"/>
			<point x="63.8914794922" y="736.6544189453"/>
			<point x="293.1551513672" y="1026.9987792969"/>
			<point x="469.971862793" y="1026.9987792969" type="qcurve" smooth="yes"/>
			<point x="598.192199707" y="1026.9987792969"/>
			<point x="723.2048339844" y="959.2211914062"/>
			<point x="759.8846435547" y="914.0361328125" type="qcurve"/>
			<point x="806.1708984375" y="998.1755371094" type="line"/>
			<point x="910.967956543" y="998.1755371094" type="line"/>
			<point x="910.967956543" y="747.6452636719" type="line"/>
			<point x="807.3367919922" y="747.6452636719" type="line"/>
			<point x="772.3367919922" y="827.9987792969" type="line" smooth="yes"/>
			<point x="765.151184082" y="849.3706665039"/>
			<point x="606.2659912109" y="920.8897705078"/>
			<point x="526.4843139648" y="920.8897705078" type="qcurve" smooth="yes"/>
			<point x="387.3017578125" y="920.8897705078"/>
			<point x="245.8949584961" y="697.3095092773"/>
			<point x="245.8949584961" y="501.9993896484" type="qcurve" smooth="yes"/>
			<point x="245.8949584961" y="291.2372436523"/>
			<point x="426.4584960938" y="68.3686523438"/>
			<point x="588.6410522461" y="68.3686523438" type="qcurve" smooth="yes"/>
			<point x="713.520690918" y="68.3686523438"/>
			<point x="916.3461303711" y="171.7397460938"/>
			<point x="937.3197631836" y="220" type="qcurve"/>
			<point x="989.2466430664" y="160.7789306641" type="line"/>
			<point x="957.6786499023" y="86.2229003906"/>
			<point x="719.8424682617" y="-30"/>
			<point x="530.0806274414" y="-30" type="qcurve" smooth="yes"/>
			<point x="379.3677368164" y="-30"/>
			<point x="63.8914794922" y="233.0887451172"/>
		</contour>
	</outline>
	<anchor name="bottom" x="563" y="0"/>
	<anchor name="top" x="534" y="1000"/>
</glyph>
<glyph name="d" format="2">
	<unicode hex="0064"/>
	<advance width="1252"/>
	<outline>
		<contour>
			<point x="64.3157958984" y="488.3325805664" type="qcurve" smooth="yes"/>
			<point x="64.3157958984" y="734.2141723633"/>
			<point x="342.7890014648" y="1032.2653808594"/>
			<point x="529.125793457" y="1032.2653808594" type="qcurve" smooth="yes"/>
			<point x="624.7955932617" y="1032.2653808594"/>
			<point x="881.0958862305" y="935.7176513672"/>
			<point x="881.0456542969" y="903.3321533203" type="qcurve"/>
			<point x="880.4918823242" y="1415.8021240234" type="line"/>
			<point x="696.4889526367" y="1445.8021240234" type="line"/>
			<point x="696.4889526367" y="1538.0009765625" type="line"/>
			<point x="1020.900390625" y="1541.0009765625" type="line"/>
			<point x="1034.7092895508" y="1535.0009765625" type="line"/>
			<point x="1057.0431518555" y="1508.0009765625" type="line"/>
			<point x="1049.7097167969" y="530.6295166016" type="line"/>
			<point x="1065.8056030273" y="107.9990234375" type="line"/>
			<point x="1228.8075561523" y="80.9990234375" type="line"/>
			<point x="1228.8075561523" y="0" type="line"/>
			<point x="944.3221435547" y="0" type="line"/>
			<point x="918.5534667969" y="11" type="line"/>
			<point x="895.3501586914" y="127.7998046875" type="line"/>
			<point x="864.5009155273" y="80.2221679688"/>
			<point x="640.7030029297" y="-20"/>
			<point x="538.1403198242" y="-20" type="qcurve" smooth="yes"/>
			<point x="365.8154907227" y="-20"/>
			<point x="64.3157958984" y="256.9765014648"/>
		</contour>
		<contour>
			<point x="249.3193969727" y="499.1326904297" type="qcurve" smooth="yes"/>
			<point x="249.3193969727" y="304.2161865234"/>
			<point x="432.2415161133" y="98.9234619141"/>
			<point x="581.7875976562" y="97.9975585938" type="qcurve" smooth="yes"/>
			<point x="671.9900512695" y="97.0716552734"/>
			<point x="865.8342285156" y="193.9827880859"/>
			<point x="889.4689331055" y="249.486328125" type="qcurve"/>
			<point x="895.4690551758" y="573.1993408203" type="line"/>
			<point x="895.4690551758" y="756.9129638672" type="line"/>
			<point x="870.3938598633" y="832.6381835938"/>
			<point x="663.0426635742" y="921.6009521484"/>
			<point x="582.0341796875" y="921.6009521484" type="qcurve" smooth="yes"/>
			<point x="444.2151489258" y="921.6009521484"/>
			<point x="249.3193969727" y="688.7738037109"/>
		</contour>
	</outline>
	<anchor name="bottom" x="604" y="0"/>
	<anchor name="center" x="876" y="1202"/>
	<anchor name="top" x="604" y="1534"/>
	<anchor name="topright" x="961" y="1000"/>
	<anchor name="liga" x="1207" y="0"/>
</glyph>
<glyph name="e" format="2">
	<unicode hex="0065"/>
	<advance width="1007"/>
	<outline>
		<contour>
			<point x="62.8306884766" y="476.9990234375" type="qcurve" smooth="yes"/>
			<point x="62.8306884766" y="753.3325195312"/>
			<point x="385.6696166992" y="1028.9321289062"/>
			<point x="554.0213012695" y="1028.9321289062" type="qcurve" smooth="yes"/>
			<point x="746.7282104492" y="1028.9321289062"/>
			<point x="980.709777832" y="778.9990234375"/>
			<point x="992.8461914062" y="590.2211914062" type="qcurve"/>
			<point x="992.8461914062" y="526.1850585938" type="line"/>
			<point x="166" y="528" type="line"/>
			<point x="166" y="624" type="line"/>
			<point x="826.5095214844" y="612.9241943359" type="line"/>
			<point x="818.6052246094" y="733.7918701172"/>
			<point x="655.5736083984" y="916.6381835938"/>
			<point x="502.9367675781" y="916.6381835938" type="qcurve" smooth="yes"/>
			<point x="403.3906860352" y="916.6381835938"/>
			<point x="240.9083251953" y="698.7012939453"/>
			<point x="241.8342285156" y="500.3327636719" type="qcurve" smooth="yes"/>
			<point x="242.7601318359" y="302.6304321289"/>
			<point x="457.8118896484" y="64.9981689453"/>
			<point x="621.3579711914" y="64.9981689453" type="qcurve" smooth="yes"/>
			<point x="727.9812011719" y="64.9981689453"/>
			<point x="888.5812988281" y="158.8879394531"/>
			<point x="887.6309814453" y="223.0367431641" type="qcurve"/>
			<point x="940.4448242188" y="163.8156738281" type="line"/>
			<point x="909.0591430664" y="85.4819335938"/>
			<point x="750.0017089844" y="-29"/>
			<point x="584.3919677734" y="-29" type="qcurve" smooth="yes"/>
			<point x="344.1217041016" y="-29"/>
			<point x="62.8306884766" y="237.666015625"/>
		</contour>
	</outline>
	<anchor name="bottom" x="578" y="0"/>
	<anchor name="ogonek" x="744" y="0"/>
	<anchor name="top" x="539" y="1000"/>
</glyph>
<glyph name="g" format="2">
	<unicode hex="0067"/>
	<advance width="1052"/>
	<outline>
		<contour>
			<point x="84.2198486328" y="-239.5254516602" type="qcurve" smooth="yes"/>
			<point x="84.2198486328" y="-152.8868408203"/>
			<point x="216.5614013672" y="35.4508056641"/>
			<point x="379.612121582" y="108.9897460938" type="qcurve"/>
			<point x="502.7311401367" y="109.7706298828" type="line"/>
			<point x="255.0021972656" y="-31.0327148438"/>
			<point x="235.5556030273" y="-198.0821533203"/>
			<point x="235.5556030273" y="-244.3200683594" type="qcurve" smooth="yes"/>
			<point x="235.5556030273" y="-333.9615478516"/>
			<point x="451.8641967773" y="-407.7958984375"/>
			<point x="600.9473266602" y="-407.7958984375" type="qcurve" smooth="yes"/>
			<point x="766.1862182617" y="-407.7958984375"/>
			<point x="940.9756469727" y="-314.376953125"/>
			<point x="940.9756469727" y="-219.8063964844" type="qcurve" smooth="yes"/>
			<point x="940.9756469727" y="-124.3310546875"/>
			<point x="798.6611328125" y="-80.7612915039"/>
			<point x="514.4522705078" y="-32.3234863281" type="qcurve" smooth="yes"/>
			<point x="365.6528320312" y="9.9542236328"/>
			<point x="172.477722168" y="47.4935302734"/>
			<point x="172.477722168" y="144.7565307617" type="qcurve" smooth="yes"/>
			<point x="172.477722168" y="235.9076538086"/>
			<point x="314.8165893555" y="323.8597412109"/>
			<point x="359.6451416016" y="339.5871582031" type="qcurve"/>
			<point x="395.6475219727" y="280.3900146484" type="line"/>
			<point x="343.410949707" y="252.5922851562"/>
			<point x="296.1461181641" y="205.7213745117"/>
			<point x="296.1461181641" y="152.2458496094" type="qcurve" smooth="yes"/>
			<point x="296.1461181641" y="144.2689819336"/>
			<point x="382.8892211914" y="164.7940063477"/>
			<point x="589.7053222656" y="120.3461303711" type="qcurve" smooth="yes"/>
			<point x="815.4293212891" y="73.8994140625"/>
			<point x="1055.3106079102" y="-7.2337646484"/>
			<point x="1055.3106079102" y="-164.4152832031" type="qcurve" smooth="yes"/>
			<point x="1055.3106079102" y="-300.9718017578"/>
			<point x="798.7125854492" y="-502.4235839844"/>
			<point x="541.9974365234" y="-502.4235839844" type="qcurve" smooth="yes"/>
			<point x="384.3885498047" y="-502.4235839844"/>
			<point x="84.2198486328" y="-356.8530883789"/>
		</contour>
		<contour>
			<point x="109.0014648438" y="659.3325195312" type="qcurve" smooth="yes"/>
			<point x="109.0014648438" y="808.294128418"/>
			<point x="337.6868896484" y="1029.9321289062"/>
			<point x="516.8904418945" y="1029.9321289062" type="qcurve" smooth="yes"/>
			<point x="687.9982299805" y="1029.9321289062"/>
			<point x="920.4865722656" y="845.294128418"/>
			<point x="920.4865722656" y="694.1993408203" type="qcurve" smooth="yes"/>
			<point x="922.4865722656" y="554.571472168"/>
			<point x="680.4619750977" y="247.9938964844"/>
			<point x="525.5455932617" y="247.9938964844" type="qcurve" smooth="yes"/>
			<point x="346.6811523438" y="247.9938964844"/>
			<point x="109.0014648438" y="542.2381591797"/>
		</contour>
		<contour>
			<point x="291.0049438477" y="666.4038085938" type="qcurve" smooth="yes"/>
			<point x="291.0049438477" y="563.8391723633"/>
			<point x="394.1184692383" y="350.9547119141"/>
			<point x="526.6643676758" y="350.9547119141" type="qcurve" smooth="yes"/>
			<point x="637.2102661133" y="350.9547119141"/>
			<point x="736.1497192383" y="579.7677612305"/>
			<point x="736.1497192383" y="698.3323974609" type="qcurve" smooth="yes"/>
			<point x="736.1497192383" y="816.8970336914"/>
			<point x="647.6624145508" y="916.8604736328"/>
			<point x="512.1165161133" y="916.8604736328" type="qcurve" smooth="yes"/>
			<point x="376.5706176758" y="916.8604736328"/>
			<point x="291.0049438477" y="789.9684448242"/>
		</contour>
		<contour>
			<point x="709.4609985352" y="861.1188964844" type="line"/>
			<point x="692.4609985352" y="940.9321289062" type="line"/>
			<point x="1010.9990234375" y="998.9321289062" type="line"/>
			<point x="1010.9990234375" y="886.7857666016" type="line"/>
		</contour>
	</outline>
	<anchor name="bottom" x="524" y="-416"/>
	<anchor name="top" x="484" y="1000"/>
</glyph>
<glyph name="h" format="2">
	<unicode hex="0068"/>
	<advance width="1255"/>
	<outline>
		<contour>
			<point x="74.1953125" y="0" type="line"/>
			<point x="74.1953125" y="79.9990234375" type="line"/>
			<point x="218.3173828125" y="107.9990234375" type="line"/>
			<point x="220.3173828125" y="554.7987060547" type="line"/>
			<point x="212.3173828125" y="1413.8021240234" type="line"/>
			<point x="67.3154296875" y="1445.8021240234" type="line"/>
			<point x="67.3154296875" y="1538.0009765625" type="line"/>
			<point x="372.6539916992" y="1534.0009765625" type="line"/>
			<point x="383.6539916992" y="1528.0009765625" type="line"/>
			<point x="386.6539916992" y="1502.0009765625" type="line"/>
			<point x="381.6539916992" y="847.0388793945" type="line"/>
			<point x="440.9760131836" y="926.2404785156"/>
			<point x="610.2744140625" y="1021.9987792969"/>
			<point x="726.5410766602" y="1021.9987792969" type="qcurve" smooth="yes"/>
			<point x="893.5189208984" y="1021.9987792969"/>
			<point x="1057.8481445312" y="882.4838256836"/>
			<point x="1057.8481445312" y="773.8564453125" type="qcurve" smooth="yes"/>
			<point x="1057.8481445312" y="694.7398071289"/>
			<point x="1072.9143066406" y="652.5974121094"/>
			<point x="1072.9143066406" y="652.5974121094" type="qcurve"/>
			<point x="1062.6846313477" y="107.9990234375" type="line"/>
			<point x="1221.8457641602" y="79.9990234375" type="line"/>
			<point x="1221.8457641602" y="0" type="line"/>
			<point x="703.7474975586" y="0" type="line"/>
			<point x="703.7474975586" y="79.9990234375" type="line"/>
			<point x="891.3480834961" y="107.9990234375" type="line"/>
			<point x="894.5661010742" y="551.7987060547" type="line"/>
			<point x="894.5661010742" y="674.7767944336" type="line" smooth="yes"/>
			<point x="894.5661010742" y="728.3240356445"/>
			<point x="765.3563842773" y="888.1486816406"/>
			<point x="665.87890625" y="888.1486816406" type="qcurve" smooth="yes"/>
			<point x="589.6635742188" y="888.1486816406"/>
			<point x="430.6314697266" y="803.1946411133"/>
			<point x="382.6539916992" y="731.3879394531" type="qcurve"/>
			<point x="382.6539916992" y="551.2653808594" type="line"/>
			<point x="388.6539916992" y="107.9990234375" type="line"/>
			<point x="566.2560424805" y="79.9990234375" type="line"/>
			<point x="566.2560424805" y="0" type="line"/>
		</contour>
	</outline>
	<anchor name="bottom" x="629" y="0"/>
	<anchor name="center" x="347" y="1202"/>
	<anchor name="top" x="304" y="1534"/>
</glyph>
<glyph name="k" format="2">
	<unicode hex="006B"/>
	<advance width="1027"/>
	<outline>
		<contour>
			<point x="76.5866699219" y="0" type="line"/>
			<point x="76.5866699219" y="79.9990234375" type="line"/>
			<point x="223.5886230469" y="107.9990234375" type="line"/>
			<point x="226.9219970703" y="470" type="line"/>
			<point x="217.5886230469" y="1413.8021240234" type="line"/>
			<point x="58.1872558594" y="1445.8021240234" type="line"/>
			<point x="58.1872558594" y="1538.0009765625" type="line"/>
			<point x="379.258605957" y="1535.0009765625" type="line"/>
			<point x="390.258605957" y="1528.0009765625" type="line"/>
			<point x="393.258605957" y="1502.0009765625" type="line"/>
			<point x="387.9252319336" y="511" type="line"/>
			<point x="395.258605957" y="106.9990234375" type="line"/>
			<point x="575.260559082" y="79.9990234375" type="line"/>
			<point x="575.260559082" y="0" type="line"/>
		</contour>
		<contour>
			<point x="303" y="376" type="line"/>
			<point x="303" y="490" type="line"/>
			<point x="847.4547119141" y="888.9332275391" type="line"/>
			<point x="722.4527587891" y="912.9332275391" type="line"/>
			<point x="722.4527587891" y="998.9321289062" type="line"/>
			<point x="1076.6106567383" y="998.9321289062" type="line"/>
			<point x="1076.6106567383" y="914.9332275391" type="line"/>
			<point x="940.6087036133" y="885.9332275391" type="line"/>
		</contour>
		<contour>
			<point x="479.9081420898" y="561.7599487305" type="line"/>
			<point x="588.792175293" y="658.0657348633" type="line"/>
			<point x="1035.3377075195" y="108.9990234375" type="line"/>
			<point x="1134.3396606445" y="84.9990234375" type="line"/>
			<point x="1134.3396606445" y="0" type="line"/>
			<point x="779.3592529297" y="0" type="line"/>
			<point x="768.6216430664" y="85.9544677734" type="line"/>
			<point x="868.1112060547" y="107.7766723633" type="line"/>
		</contour>
	</outline>
	<anchor name="bottom" x="608" y="0"/>
	<anchor name="top" x="578" y="1534"/>
</glyph>
<glyph name="n" format="2">
	<unicode hex="006E"/>
	<advance width="1238"/>
	<outline>
		<contour>
			<point x="76" y="0" type="line"/>
			<point x="76" y="80" type="line"/>
			<point x="224" y="115" type="line"/>
			<point x="226" y="554" type="line"/>
			<point x="223" y="853" type="line"/>
			<point x="52" y="884" type="line"/>
			<point x="52" y="976" type="line"/>
			<point x="356" y="1002" type="line"/>
			<point x="375" y="1001" type="line"/>
			<point x="389" y="825" type="line"/>
			<point x="411" y="902"/>
			<point x="635" y="1021"/>
			<point x="740" y="1021" type="qcurve" smooth="yes"/>
			<point x="903" y="1021"/>
			<point x="1053" y="852"/>
			<point x="1053" y="702" type="qcurve" smooth="yes"/>
			<point x="1053" y="644"/>
			<point x="1051" y="603"/>
			<point x="1051" y="576" type="qcurve" smooth="yes"/>
			<point x="1056" y="116" type="line"/>
			<point x="1195" y="81" type="line"/>
			<point x="1195" y="0" type="line"/>
			<point x="728" y="0" type="line"/>
			<point x="728" y="81" type="line"/>
			<point x="882" y="116" type="line"/>
			<point x="890" y="552" type="line"/>
			<point x="890" y="593" type="line" smooth="yes"/>
			<point x="890" y="758"/>
			<point x="804" y="891"/>
			<point x="677" y="891" type="qcurve" smooth="yes"/>
			<point x="579" y="891"/>
			<point x="405" y="772"/>
			<point x="389" y="702" type="qcurve"/>
			<point x="388" y="554" type="line"/>
			<point x="395" y="116" type="line"/>
			<point x="578" y="81" type="line"/>
			<point x="578" y="0" type="line"/>
		</contour>
	</outline>
	<anchor name="bottom" x="632" y="0"/>
	<anchor name="top" x="632" y="1000"/>
	<anchor name="liga" x="1264" y="0"/>
</glyph>
<glyph name="p" format="2">
	<unicode hex="0070"/>
	<advance width="1156"/>
	<outline>
		<contour>
			<point x="48.7211914062" y="-479.9951171875" type="line"/>
			<point x="48.7211914062" y="-403.99609375" type="line"/>
			<point x="189.603515625" y="-375.99609375" type="line"/>
			<point x="192.603515625" y="428.4660644531" type="line"/>
			<point x="190.603515625" y="871.7332763672" type="line"/>
			<point x="27.7211914062" y="897.7332763672" type="line"/>
			<point x="27.7211914062" y="987.9321289062" type="line"/>
			<point x="351.6068115234" y="1001.9321289062" type="line"/>
			<point x="355.6068115234" y="999.9321289062" type="line"/>
			<point x="353.6068115234" y="842.9321289062" type="line"/>
			<point x="366.5078735352" y="909.5321044922"/>
			<point x="550.6031494141" y="1026.2653808594"/>
			<point x="669.3826293945" y="1026.2653808594" type="qcurve" smooth="yes"/>
			<point x="862.0291748047" y="1026.2653808594"/>
			<point x="1092.0646362305" y="738.2810058594"/>
			<point x="1092.0646362305" y="520.4660644531" type="qcurve" smooth="yes"/>
			<point x="1092.0646362305" y="307.9251708984"/>
			<point x="823.6196289062" y="-18"/>
			<point x="644.7974853516" y="-18" type="qcurve" smooth="yes"/>
			<point x="519.9188232422" y="-18"/>
			<point x="389.9022216797" y="58"/>
			<point x="357.6068115234" y="97" type="qcurve"/>
			<point x="363.6068115234" y="-375.99609375" type="line"/>
			<point x="514.0897216797" y="-403.99609375" type="line"/>
			<point x="514.0897216797" y="-479.9951171875" type="line"/>
		</contour>
		<contour>
			<point x="358.6068115234" y="252.9602050781" type="line"/>
			<point x="344.3280029297" y="183.9975585938"/>
			<point x="500.7967529297" y="73.2945556641"/>
			<point x="598.1614990234" y="73.2945556641" type="qcurve" smooth="yes"/>
			<point x="734.3440551758" y="73.2945556641"/>
			<point x="906.3944091797" y="304.3352050781"/>
			<point x="906.3944091797" y="515.4660644531" type="qcurve" smooth="yes"/>
			<point x="906.3944091797" y="731.151550293"/>
			<point x="747.4744262695" y="907.6009521484"/>
			<point x="617.2918701172" y="907.6009521484" type="qcurve" smooth="yes"/>
			<point x="498.3792724609" y="907.6009521484"/>
			<point x="363.6324462891" y="780.3863525391"/>
			<point x="353.6068115234" y="724.8604736328" type="qcurve"/>
			<point x="355.6068115234" y="438.4660644531" type="line"/>
		</contour>
	</outline>
	<anchor name="bottom" x="599" y="0"/>
	<anchor name="top" x="599" y="1000"/>
</glyph>
<glyph name="r" format="2">
	<unicode hex="0072"/>
	<advance width="755"/>
	<outline>
		<contour>
			<point x="76.0009765625" y="0" type="line"/>
			<point x="76.0009765625" y="80.4990234375" type="line"/>
			<point x="224.0029296875" y="107.9990234375" type="line"/>
			<point x="225.3363037109" y="547.9321289062" type="line"/>
			<point x="221.0029296875" y="852.2326660156" type="line"/>
			<point x="52.0009765625" y="897.2332763672" type="line"/>
			<point x="52.0009765625" y="989.9321289062" type="line"/>
			<point x="363.0057373047" y="1001.9321289062" type="line"/>
			<point x="388.3394775391" y="1000.9321289062" type="line"/>
			<point x="387.6729125977" y="793.1905517578" type="line"/>
			<point x="441.7739868164" y="881.9321289062"/>
			<point x="613.9820556641" y="1009.3988037109"/>
			<point x="730.6797485352" y="1009.9321289062" type="qcurve" smooth="yes"/>
			<point x="780.7183837891" y="1009.9321289062" type="line"/>
			<point x="782.9683837891" y="745.482421875" type="line"/>
			<point x="675.9666748047" y="745.482421875" type="line"/>
			<point x="624.4853515625" y="886.8598632812" type="line"/>
			<point x="596.8345947266" y="884.6008300781"/>
			<point x="451.7990112305" y="776.2302856445"/>
			<point x="388.6729125977" y="657.6749267578" type="qcurve"/>
			<point x="388.6729125977" y="547.9321289062" type="line"/>
			<point x="394.6729125977" y="107.9990234375" type="line"/>
			<point x="575.6748657227" y="80.9990234375" type="line"/>
			<point x="575.6748657227" y="0" type="line"/>
		</contour>
	</outline>
	<anchor name="bottom" x="432" y="0"/>
	<anchor name="top" x="486" y="1000"/>
</glyph>
<glyph name="s" format="2">
	<unicode hex="0073"/>
	<advance width="977"/>
	<outline>
		<contour>
			<point x="166.2959594727" y="18.8232421875" type="line"/>
			<point x="166.2959594727" y="278.353515625" type="line"/>
			<point x="277.4458007812" y="278.353515625" type="line"/>
			<point x="301.297668457" y="238" type="line" smooth="yes"/>
			<point x="331.9254760742" y="144.0129394531"/>
			<point x="401.7786865234" y="85.2939453125"/>
			<point x="557.3159790039" y="85.2939453125" type="qcurve" smooth="yes"/>
			<point x="641.7962646484" y="85.2939453125"/>
			<point x="755.7009887695" y="239.3240966797"/>
			<point x="755.7009887695" y="310.0950927734" type="qcurve" smooth="yes"/>
			<point x="755.7009887695" y="401.3163452148"/>
			<point x="673.2425537109" y="440.318359375"/>
			<point x="488.5725708008" y="474.4014282227" type="qcurve" smooth="yes"/>
			<point x="285.2451171875" y="510.815612793"/>
			<point x="152.6352539062" y="607.7974243164"/>
			<point x="152.6352539062" y="726.0642089844" type="qcurve" smooth="yes"/>
			<point x="152.6352539062" y="860.8646240234"/>
			<point x="323.3334960938" y="1028.9321289062"/>
			<point x="475.2384033203" y="1028.9321289062" type="qcurve" smooth="yes"/>
			<point x="603.0438842773" y="1028.9321289062"/>
			<point x="679.0788574219" y="966.5988769531"/>
			<point x="722.9808349609" y="920.2655029297" type="qcurve"/>
			<point x="758.8327026367" y="998.1088867188" type="line"/>
			<point x="849.500793457" y="998.1088867188" type="line"/>
			<point x="849.500793457" y="723.5786132812" type="line"/>
			<point x="743.0546875" y="723.5786132812" type="line"/>
			<point x="713.5361328125" y="800.8190917969" type="line" smooth="yes"/>
			<point x="692.7543945312" y="870.7375488281"/>
			<point x="659.4518432617" y="919.4158935547"/>
			<point x="514.9048461914" y="919.4158935547" type="qcurve" smooth="yes"/>
			<point x="416.4638671875" y="919.4158935547"/>
			<point x="317.9694824219" y="819.8282470703"/>
			<point x="317.9694824219" y="751.1042480469" type="qcurve" smooth="yes"/>
			<point x="317.9694824219" y="687.469543457"/>
			<point x="398.289855957" y="621.9281616211"/>
			<point x="686.6271972656" y="585.9522705078" type="qcurve" smooth="yes"/>
			<point x="735.4025878906" y="603.9692382812"/>
			<point x="925.6278686523" y="452.268371582"/>
			<point x="925.6278686523" y="293.1337890625" type="qcurve" smooth="yes"/>
			<point x="925.6278686523" y="157.0670776367"/>
			<point x="749.4758300781" y="-27"/>
			<point x="603.9049682617" y="-27" type="qcurve" smooth="yes"/>
			<point x="428.0927734375" y="-27"/>
			<point x="370.2322998047" y="60.3333740234"/>
			<point x="314.8529663086" y="108.6666259766" type="qcurve"/>
			<point x="259.2973632812" y="18.8232421875" type="line"/>
		</contour>
	</outline>
	<anchor name="bottom" x="468" y="0"/>
	<anchor name="top" x="416" y="1000"/>
</glyph>
<glyph name="u" format="2">
	<unicode hex="0075"/>
	<advance width="1268"/>
	<outline>
		<contour>
			<point x="57.1857910156" y="893.4000244141" type="line"/>
			<point x="57.1857910156" y="984.5988769531" type="line"/>
			<point x="359.5242919922" y="996.5988769531" type="line"/>
			<point x="392.5242919922" y="996.5988769531" type="line"/>
			<point x="392.5242919922" y="964.5988769531" type="line"/>
			<point x="390.5242919922" y="502.3334960938" type="line"/>
			<point x="390.5242919922" y="456.2198486328" type="line" smooth="yes"/>
			<point x="390.5242919922" y="274.2198486328"/>
			<point x="512.5742797852" y="105.2198486328"/>
			<point x="534.0035400391" y="105.2198486328" type="qcurve" smooth="yes"/>
			<point x="585.7265014648" y="105.2198486328"/>
			<point x="812.6674804688" y="218.2198486328"/>
			<point x="873.0845947266" y="294.2198486328" type="qcurve"/>
			<point x="877.0845947266" y="455.3334960938" type="line"/>
			<point x="874.0845947266" y="872.4000244141" type="line"/>
			<point x="696.0826416016" y="894.4000244141" type="line"/>
			<point x="696.0826416016" y="984.5988769531" type="line"/>
			<point x="995.4212036133" y="996.5988769531" type="line"/>
			<point x="1019.4212036133" y="990.5988769531" type="line"/>
			<point x="1040.4212036133" y="963.5988769531" type="line"/>
			<point x="1037.4212036133" y="455.3334960938" type="line"/>
			<point x="1042.4212036133" y="111.1989746094" type="line"/>
			<point x="1220.4231567383" y="93.1989746094" type="line"/>
			<point x="1220.4231567383" y="11" type="line"/>
			<point x="905.0845947266" y="-4" type="line"/>
			<point x="880.0845947266" y="18" type="line"/>
			<point x="874.0845947266" y="175" type="line"/>
			<point x="814.2858276367" y="102"/>
			<point x="611.8364868164" y="-14"/>
			<point x="458.6685791016" y="-14" type="qcurve" smooth="yes"/>
			<point x="373.2675170898" y="-14"/>
			<point x="228.1877441406" y="176.3339233398"/>
			<point x="228.1877441406" y="317" type="qcurve" smooth="yes"/>
			<point x="228.1877441406" y="399.2667236328"/>
			<point x="229.6544189453" y="484.4001464844"/>
			<point x="230.1877441406" y="502.3334960938" type="qcurve" smooth="yes"/>
			<point x="227.1877441406" y="867.4000244141" type="line"/>
		</contour>
	</outline>
	<anchor name="bottom" x="622" y="0"/>
	<anchor name="ogonek" x="1030" y="20"/>
	<anchor name="top" x="622" y="1000"/>
	<anchor name="topright" x="1005" y="1000"/>
	<anchor name="cy_descender" x="1178" y="80"/>
</glyph>
<glyph name="v" format="2">
	<unicode hex="0076"/>
	<advance width="1004"/>
	<outline>
		<contour>
			<point x="-50.4592895508" y="912.9332275391" type="line"/>
			<point x="-50.4592895508" y="998.9321289062" type="line"/>
			<point x="450.8591918945" y="998.9321289062" type="line"/>
			<point x="450.8591918945" y="912.9332275391" type="line"/>
			<point x="272.8572387695" y="889.9332275391" type="line"/>
			<point x="405.4068603516" y="583.0598144531" type="line"/>
			<point x="486" y="301" type="line"/>
			<point x="523" y="187" type="line"/>
			<point x="533" y="187" type="line"/>
			<point x="570" y="301" type="line"/>
			<point x="655.5534057617" y="595.591003418" type="line"/>
			<point x="777.9334106445" y="882.9332275391" type="line"/>
			<point x="574.9314575195" y="912.9332275391" type="line"/>
			<point x="574.9314575195" y="998.9321289062" type="line"/>
			<point x="1074.0515136719" y="998.9321289062" type="line"/>
			<point x="1074.0515136719" y="912.9332275391" type="line"/>
			<point x="900.0495605469" y="882.9332275391" type="line"/>
			<point x="765.1066894531" y="562.6209716797" type="line"/>
			<point x="543.6455078125" y="-5" type="line"/>
			<point x="459.9775390625" y="-5" type="line"/>
			<point x="252.693359375" y="544.7991943359" type="line"/>
			<point x="108.5426635742" y="888.9332275391" type="line"/>
		</contour>
	</outline>
	<anchor name="bottom" x="513" y="0"/>
	<anchor name="top" x="513" y="1000"/>
</glyph>
<glyph name="w" format="2">
	<unicode hex="0077"/>
	<advance width="1651"/>
	<outline>
		<contour>
			<point x="454.3172607422" y="-5" type="line"/>
			<point x="253.0415039062" y="511.0360717773" type="line"/>
			<point x="89.024597168" y="888.9332275391" type="line"/>
			<point x="-78.977355957" y="911.9332275391" type="line"/>
			<point x="-78.977355957" y="998.9321289062" type="line"/>
			<point x="454.6444091797" y="998.9321289062" type="line"/>
			<point x="454.6444091797" y="911.9332275391" type="line"/>
			<point x="282.6424560547" y="889.9332275391" type="line"/>
			<point x="389.1405029297" y="543.0893554688" type="line"/>
			<point x="498.7271728516" y="318.9996337891" type="line"/>
			<point x="518.9572753906" y="229.4146728516" type="line"/>
			<point x="518.9572753906" y="229.4146728516" type="line"/>
			<point x="540.4243774414" y="319.3774414062" type="line"/>
			<point x="612.3737792969" y="430.9854736328" type="line"/>
			<point x="723.0177612305" y="784.7287597656" type="line"/>
			<point x="658.5859375" y="890.9332275391" type="line"/>
			<point x="507.583984375" y="911.9332275391" type="line"/>
			<point x="507.583984375" y="998.9321289062" type="line"/>
			<point x="1021.7244873047" y="998.9321289062" type="line"/>
			<point x="1021.7244873047" y="911.9332275391" type="line"/>
			<point x="829.7225341797" y="890.9332275391" type="line"/>
			<point x="994.0651245117" y="403.7785644531" type="line"/>
			<point x="1050.6370849609" y="320.1408691406" type="line"/>
			<point x="1070.2894897461" y="224.79296875" type="line"/>
			<point x="1070.2894897461" y="224.79296875" type="line"/>
			<point x="1093.6602783203" y="319.8298339844" type="line"/>
			<point x="1258.7864379883" y="601.7764282227" type="line"/>
			<point x="1379.9287109375" y="882.9332275391" type="line"/>
			<point x="1176.9267578125" y="911.9332275391" type="line"/>
			<point x="1176.9267578125" y="998.9321289062" type="line"/>
			<point x="1700.4985961914" y="998.9321289062" type="line"/>
			<point x="1700.4985961914" y="911.9332275391" type="line"/>
			<point x="1527.4966430664" y="881.9332275391" type="line"/>
			<point x="1363.9250488281" y="573.9100952148" type="line"/>
			<point x="1099.2797851562" y="-5" type="line"/>
			<point x="1016.0867919922" y="-5" type="line"/>
			<point x="872.7579956055" y="422.9411010742" type="line"/>
			<point x="787.6983032227" y="627.8075561523" type="line"/>
			<point x="787.6983032227" y="627.8075561523" type="line"/>
			<point x="703.5275268555" y="421.7337036133" type="line"/>
			<point x="557.7698364258" y="-5" type="line"/>
		</contour>
	</outline>
	<anchor name="bottom" x="787" y="0"/>
	<anchor name="top" x="787" y="1000"/>
</glyph>
<glyph name="x" format="2">
	<unicode hex="0078"/>
	<advance width="1103"/>
	<outline>
		<contour>
			<point x="-8.5475463867" y="0" type="line"/>
			<point x="-8.5475463867" y="83.9990234375" type="line"/>
			<point x="173.4544067383" y="116.9990234375" type="line"/>
			<point x="439.4538574219" y="477.4793701172" type="line"/>
			<point x="129.1138916016" y="888.9332275391" type="line"/>
			<point x="-50.8880615234" y="911.9332275391" type="line"/>
			<point x="-50.8880615234" y="998.9321289062" type="line"/>
			<point x="482.3424072266" y="998.9321289062" type="line"/>
			<point x="482.3424072266" y="911.9332275391" type="line"/>
			<point x="285.3404541016" y="888.9332275391" type="line"/>
			<point x="486.3750610352" y="644.9117431641" type="line"/>
			<point x="520.1967163086" y="599.2446899414" type="line"/>
			<point x="520.1967163086" y="599.2446899414" type="line"/>
			<point x="541.7299194336" y="651.2225341797" type="line"/>
			<point x="702.8108520508" y="876.9332275391" type="line"/>
			<point x="526.8088989258" y="911.9332275391" type="line"/>
			<point x="526.8088989258" y="998.9321289062" type="line"/>
			<point x="992.3365478516" y="998.9321289062" type="line"/>
			<point x="991.3365478516" y="911.9332275391" type="line"/>
			<point x="817.3345947266" y="879.9332275391" type="line"/>
			<point x="585.0996704102" y="533.5061035156" type="line"/>
			<point x="920.6262207031" y="108.9990234375" type="line"/>
			<point x="1110.6281738281" y="83.9990234375" type="line"/>
			<point x="1109.6281738281" y="0" type="line"/>
			<point x="555.9310913086" y="0" type="line"/>
			<point x="555.9310913086" y="83.9990234375" type="line"/>
			<point x="760.9330444336" y="107.9990234375" type="line"/>
			<point x="553.9045410156" y="357.3920898438" type="line"/>
			<point x="509.5420532227" y="418.0738525391" type="line"/>
			<point x="509.5420532227" y="418.0738525391" type="line"/>
			<point x="480.2678833008" y="350.7183837891" type="line"/>
			<point x="292.9113769531" y="117.9990234375" type="line"/>
			<point x="472.9133300781" y="83.9990234375" type="line"/>
			<point x="472.9133300781" y="0" type="line"/>
		</contour>
	</outline>
	<anchor name="bottom" x="522" y="0"/>
	<anchor name="top" x="522" y="1000"/>
	<anchor name="cy_descender" x="1043" y="80"/>
</glyph>
<glyph name="y" format="2">
	<unicode hex="0079"/>
	<advance width="861"/>
	<outline>
		<contour>
			<point x="-79.4964599609" y="912.9332275391" type="line"/>
			<point x="-79.4964599609" y="998.9321289062" type="line"/>
			<point x="423.6370849609" y="998.9321289062" type="line"/>
			<point x="423.6370849609" y="912.9332275391" type="line"/>
			<point x="251.6351318359" y="889.9332275391" type="line"/>
			<point x="396.5343017578" y="536.3335571289" type="line"/>
			<point x="503.7666625977" y="253.5517578125" type="line"/>
			<point x="513.1824951172" y="174.0707397461" type="line"/>
			<point x="513.1824951172" y="174.0707397461" type="line"/>
			<point x="525.9161987305" y="249.1742553711" type="line"/>
			<point x="667.5231323242" y="534.9185791016" type="line"/>
			<point x="812.9909057617" y="883.9332275391" type="line"/>
			<point x="608.9889526367" y="912.9332275391" type="line"/>
			<point x="608.9889526367" y="998.9321289062" type="line"/>
			<point x="1127.1900634766" y="998.9321289062" type="line"/>
			<point x="1127.1900634766" y="912.9332275391" type="line"/>
			<point x="954.1881103516" y="884.9332275391" type="line"/>
			<point x="783.6614990234" y="504.6080322266" type="line"/>
			<point x="517.1521606445" y="-224.5305175781" type="line" smooth="yes"/>
			<point x="444.6204223633" y="-320.8148193359"/>
			<point x="284.5791625977" y="-496.423828125"/>
			<point x="226.9114379883" y="-496.423828125" type="qcurve"/>
			<point x="61.5333862305" y="-437.4985351562" type="line"/>
			<point x="61.5333862305" y="-347.5003662109" type="line"/>
			<point x="187.4891357422" y="-347.5003662109" type="line" smooth="yes"/>
			<point x="231.5182495117" y="-347.5003662109"/>
			<point x="390.030456543" y="-207.3951416016"/>
			<point x="450.0164794922" y="-139.436706543" type="qcurve" smooth="yes"/>
			<point x="459.9986572266" y="-60.5317382812" type="line"/>
			<point x="480.3685302734" y="-60.5317382812" type="line"/>
			<point x="246.5023193359" y="496.2504882812" type="line"/>
			<point x="85.5054931641" y="888.9332275391" type="line"/>
		</contour>
	</outline>
	<anchor name="bottom" x="782" y="0"/>
	<anchor name="top" x="524" y="1000"/>
</glyph>
<glyph name="jdotless" format="2">
	<advance width="599"/>
	<outline>
		<contour>
			<point x="96.8782348633" y="-471.9237060547" type="qcurve"/>
			<point x="98.2116088867" y="-352.5252685547" type="line"/>
			<point x="119.7543945312" y="-357.1252441406"/>
			<point x="189.5172119141" y="-323.1061401367"/>
			<point x="189.5886230469" y="-315.542175293" type="qcurve" smooth="yes"/>
			<point x="186.2552490234" y="545.9321289062" type="line"/>
			<point x="180.2551269531" y="860.0662231445" type="line"/>
			<point x="15.2532958984" y="886.3995361328" type="line"/>
			<point x="15.2532958984" y="977.5983886719" type="line"/>
			<point x="296.9242553711" y="1006.9321289062" type="line"/>
			<point x="331.5916137695" y="1006.9321289062" type="line"/>
			<point x="356.5919799805" y="946.9314575195" type="line"/>
			<point x="348.5918579102" y="547.9321289062" type="line"/>
			<point x="358.9252319336" y="-261.7601928711" type="line" smooth="yes"/>
			<point x="360.5919189453" y="-377.7601928711"/>
			<point x="156.6637573242" y="-475.9237060547"/>
		</contour>
	</outline>
	<anchor name="bottom" x="278" y="-436"/>
	<anchor name="top" x="278" y="1000"/>
	<anchor name="_liga" x="0" y="0"/>
</glyph>
